<svg width="132" height="132" viewBox="0 0 132 132" fill="none" xmlns="http://www.w3.org/2000/svg">
<g clip-path="url(#clip0)">
<path d="M65.9442 88.7347C78.5316 88.7347 88.7356 78.531 88.7356 65.9441C88.7356 53.3573 78.5316 43.1536 65.9442 43.1536C53.3569 43.1536 43.1528 53.3573 43.1528 65.9441C43.1528 78.531 53.3569 88.7347 65.9442 88.7347Z" stroke="#C4C4C4" stroke-miterlimit="10"/>
<path d="M88.7356 65.8763V23.0039" stroke="#C4C4C4" stroke-miterlimit="10"/>
<path d="M85.7212 77.2717L107.14 40.1321" stroke="#C4C4C4" stroke-miterlimit="10"/>
<path d="M77.4177 85.6356L114.527 64.1643" stroke="#C4C4C4" stroke-miterlimit="10"/>
<path d="M66.0437 88.7323L108.918 88.6741" stroke="#C4C4C4" stroke-miterlimit="10"/>
<path d="M54.6455 85.7351L91.8155 107.102" stroke="#C4C4C4" stroke-miterlimit="10"/>
<path d="M46.269 77.4414L67.7897 114.523" stroke="#C4C4C4" stroke-miterlimit="10"/>
<path d="M43.1553 66.0752L43.2741 108.948" stroke="#C4C4C4" stroke-miterlimit="10"/>
<path d="M46.1382 54.6702L24.8213 91.8679" stroke="#C4C4C4" stroke-miterlimit="10"/>
<path d="M54.4201 46.2844L17.3689 67.8576" stroke="#C4C4C4" stroke-miterlimit="10"/>
<path d="M65.7841 43.156L22.9102 43.333" stroke="#C4C4C4" stroke-miterlimit="10"/>
<path d="M77.1921 46.1219L39.9614 24.8567" stroke="#C4C4C4" stroke-miterlimit="10"/>
<path d="M85.5902 54.3913L63.9653 17.3706" stroke="#C4C4C4" stroke-miterlimit="10"/>
<path d="M65.9491 88.7298C78.5365 88.7298 88.7405 78.5261 88.7405 65.9392C88.7405 53.3524 78.5365 43.1487 65.9491 43.1487C53.3618 43.1487 43.1577 53.3524 43.1577 65.9392C43.1577 78.5261 53.3618 88.7298 65.9491 88.7298Z" stroke="#C4C4C4" stroke-miterlimit="10"/>
<path d="M87.9717 71.8079L99.1322 30.4124" stroke="#C4C4C4" stroke-miterlimit="10"/>
<path d="M82.0957 82.0247L112.444 51.7432" stroke="#C4C4C4" stroke-miterlimit="10"/>
<path d="M71.9004 87.9395L113.319 76.8691" stroke="#C4C4C4" stroke-miterlimit="10"/>
<path d="M60.1118 87.9709L101.523 99.0728" stroke="#C4C4C4" stroke-miterlimit="10"/>
<path d="M49.8875 82.1072L80.2113 112.415" stroke="#C4C4C4" stroke-miterlimit="10"/>
<path d="M43.958 71.9197L55.0845 113.325" stroke="#C4C4C4" stroke-miterlimit="10"/>
<path d="M43.9117 60.1338L32.8652 101.558" stroke="#C4C4C4" stroke-miterlimit="10"/>
<path d="M49.7613 49.9001L19.4932 80.2666" stroke="#C4C4C4" stroke-miterlimit="10"/>
<path d="M59.9396 43.9587L18.5498 55.1431" stroke="#C4C4C4" stroke-miterlimit="10"/>
<path d="M71.7258 43.8958L30.2852 32.9055" stroke="#C4C4C4" stroke-miterlimit="10"/>
<path d="M81.9671 49.7304L51.5583 19.5071" stroke="#C4C4C4" stroke-miterlimit="10"/>
<path d="M87.9258 59.901L76.6829 18.5273" stroke="#C4C4C4" stroke-miterlimit="10"/>
<path d="M88.5393 68.9221L94.2699 26.4329" stroke="#C4C4C4" stroke-miterlimit="10"/>
<path d="M84.031 79.8129L110.222 45.8672" stroke="#C4C4C4" stroke-miterlimit="10"/>
<path d="M74.6821 86.9912L114.331 70.6731" stroke="#C4C4C4" stroke-miterlimit="10"/>
<path d="M62.9976 88.5408L105.496 94.2129" stroke="#C4C4C4" stroke-miterlimit="10"/>
<path d="M52.1016 84.0471L86.0825 110.189" stroke="#C4C4C4" stroke-miterlimit="10"/>
<path d="M44.9087 74.7083L61.2832 114.333" stroke="#C4C4C4" stroke-miterlimit="10"/>
<path d="M43.342 63.0269L37.7302 105.531" stroke="#C4C4C4" stroke-miterlimit="10"/>
<path d="M47.8236 52.1262L21.7244 86.1399" stroke="#C4C4C4" stroke-miterlimit="10"/>
<path d="M57.1508 44.9192L17.5483 61.3489" stroke="#C4C4C4" stroke-miterlimit="10"/>
<path d="M68.8302 43.338L26.3176 37.7847" stroke="#C4C4C4" stroke-miterlimit="10"/>
<path d="M79.7383 47.8025L45.687 21.7527" stroke="#C4C4C4" stroke-miterlimit="10"/>
<path d="M86.958 57.1194L70.4744 17.5427" stroke="#C4C4C4" stroke-miterlimit="10"/>
<path d="M86.9922 74.6986L103.585 35.1655" stroke="#C4C4C4" stroke-miterlimit="10"/>
<path d="M79.8013 84.0375L113.925 58.0823" stroke="#C4C4C4" stroke-miterlimit="10"/>
<path d="M68.9077 88.5383L111.435 83.1013" stroke="#C4C4C4" stroke-miterlimit="10"/>
<path d="M57.2212 86.9937L96.7775 103.53" stroke="#C4C4C4" stroke-miterlimit="10"/>
<path d="M47.8721 79.8154L73.8744 113.904" stroke="#C4C4C4" stroke-miterlimit="10"/>
<path d="M43.3564 68.927L48.8518 111.448" stroke="#C4C4C4" stroke-miterlimit="10"/>
<path d="M44.8867 57.2407L28.4031 96.8199" stroke="#C4C4C4" stroke-miterlimit="10"/>
<path d="M52.0508 47.8801L17.9971 73.93" stroke="#C4C4C4" stroke-miterlimit="10"/>
<path d="M62.9322 43.3525L20.4172 48.9059" stroke="#C4C4C4" stroke-miterlimit="10"/>
<path d="M74.6212 44.8657L35.0188 28.436" stroke="#C4C4C4" stroke-miterlimit="10"/>
<path d="M83.9921 52.0146L57.8953 18.001" stroke="#C4C4C4" stroke-miterlimit="10"/>
<path d="M88.5368 62.8912L82.9226 20.3875" stroke="#C4C4C4" stroke-miterlimit="10"/>
<path d="M96.7532 28.3222L100.488 9.75122" stroke="#C4C4C4" stroke-miterlimit="10"/>
<path d="M111.43 48.7459L123.941 34.5254" stroke="#C4C4C4" stroke-miterlimit="10"/>
<path d="M113.94 73.7698L131.883 67.7024" stroke="#C4C4C4" stroke-miterlimit="10"/>
<path d="M103.611 96.7012L122.185 100.409" stroke="#C4C4C4" stroke-miterlimit="10"/>
<path d="M83.2063 111.404L97.4442 123.895" stroke="#C4C4C4" stroke-miterlimit="10"/>
<path d="M58.1836 113.948L64.278 131.884" stroke="#C4C4C4" stroke-miterlimit="10"/>
<path d="M35.2373 103.651L31.5559 122.232" stroke="#C4C4C4" stroke-miterlimit="10"/>
<path d="M20.5044 83.2688L8.03198 97.5232" stroke="#C4C4C4" stroke-miterlimit="10"/>
<path d="M17.9266 58.2495L0 64.3679" stroke="#C4C4C4" stroke-miterlimit="10"/>
<path d="M28.1922 35.2917L9.6084 31.6348" stroke="#C4C4C4" stroke-miterlimit="10"/>
<path d="M48.5561 20.5305L34.2842 8.07788" stroke="#C4C4C4" stroke-miterlimit="10"/>
<path d="M73.5713 17.9187L67.4285 0" stroke="#C4C4C4" stroke-miterlimit="10"/>
<path d="M105.491 37.6366L113.93 20.6782" stroke="#C4C4C4" stroke-miterlimit="10"/>
<path d="M114.345 61.1766L130.128 50.7029" stroke="#C4C4C4" stroke-miterlimit="10"/>
<path d="M110.254 85.992L129.158 84.8037" stroke="#C4C4C4" stroke-miterlimit="10"/>
<path d="M94.311 105.443L111.28 113.858" stroke="#C4C4C4" stroke-miterlimit="10"/>
<path d="M70.7825 114.329L81.2785 130.096" stroke="#C4C4C4" stroke-miterlimit="10"/>
<path d="M45.9609 110.271L47.1735 129.172" stroke="#C4C4C4" stroke-miterlimit="10"/>
<path d="M26.485 94.356L18.094 111.336" stroke="#C4C4C4" stroke-miterlimit="10"/>
<path d="M17.5676 70.8403L1.81396 81.3577" stroke="#C4C4C4" stroke-miterlimit="10"/>
<path d="M21.5909 46.0151L2.68945 47.2543" stroke="#C4C4C4" stroke-miterlimit="10"/>
<path d="M37.478 26.5178L20.4875 18.1514" stroke="#C4C4C4" stroke-miterlimit="10"/>
<path d="M60.9823 17.5669L50.4451 1.82837" stroke="#C4C4C4" stroke-miterlimit="10"/>
<path d="M85.8157 21.5563L84.5498 2.65796" stroke="#C4C4C4" stroke-miterlimit="10"/>
<path d="M101.393 32.6557L107.514 14.7322" stroke="#F1F1F1" stroke-miterlimit="10"/>
<path d="M113.283 54.818L127.541 42.3484" stroke="#F1F1F1" stroke-miterlimit="10"/>
<path d="M112.512 79.9561L131.091 76.2773" stroke="#F1F1F1" stroke-miterlimit="10"/>
<path d="M99.2827 101.347L117.217 107.444" stroke="#F1F1F1" stroke-miterlimit="10"/>
<path d="M77.1362 113.267L89.6232 127.506" stroke="#F1F1F1" stroke-miterlimit="10"/>
<path d="M51.9951 112.529L55.6983 131.103" stroke="#F1F1F1" stroke-miterlimit="10"/>
<path d="M30.586 99.3298L24.5134 117.27" stroke="#F1F1F1" stroke-miterlimit="10"/>
<path d="M18.6348 77.2012L4.41138 89.7096" stroke="#F1F1F1" stroke-miterlimit="10"/>
<path d="M19.3383 52.0608L0.769043 55.7905" stroke="#F1F1F1" stroke-miterlimit="10"/>
<path d="M32.5092 30.633L14.5583 24.5874" stroke="#F1F1F1" stroke-miterlimit="10"/>
<path d="M54.6215 18.6534L42.0933 4.44751" stroke="#F1F1F1" stroke-miterlimit="10"/>
<path d="M79.7653 19.3203L76.0088 0.756592" stroke="#F1F1F1" stroke-miterlimit="10"/>
<path d="M108.843 43.03L119.419 27.3181" stroke="#F1F1F1" stroke-miterlimit="10"/>
<path d="M114.554 67.5229L131.566 59.1953" stroke="#F1F1F1" stroke-miterlimit="10"/>
<path d="M107.264 91.5938L126.161 92.879" stroke="#F1F1F1" stroke-miterlimit="10"/>
<path d="M88.9226 108.802L104.65 119.356" stroke="#F1F1F1" stroke-miterlimit="10"/>
<path d="M64.436 114.547L72.7882 131.546" stroke="#F1F1F1" stroke-miterlimit="10"/>
<path d="M40.3544 107.289L39.0957 126.19" stroke="#F1F1F1" stroke-miterlimit="10"/>
<path d="M23.119 88.9724L12.5867 104.716" stroke="#F1F1F1" stroke-miterlimit="10"/>
<path d="M17.3423 64.4963L0.351807 72.87" stroke="#F1F1F1" stroke-miterlimit="10"/>
<path d="M24.5643 40.406L5.66284 39.1716" stroke="#F1F1F1" stroke-miterlimit="10"/>
<path d="M42.8596 23.1447L27.1011 12.6345" stroke="#F1F1F1" stroke-miterlimit="10"/>
<path d="M67.3291 17.3342L58.9309 0.356445" stroke="#F1F1F1" stroke-miterlimit="10"/>
<path d="M91.4299 24.5246L92.6376 5.62134" stroke="#F1F1F1" stroke-miterlimit="10"/>
</g>
<defs>
<clipPath id="clip0">
<rect width="132" height="132" fill="white"/>
</clipPath>
</defs>
</svg>
